<svg xmlns="http://www.w3.org/2000/svg" viewBox="0 0 44 36">
  <path fill-rule="evenodd" clip-rule="evenodd" d="M 2 3 L 2 33 L 6.5 33 L 6.5 22 L 13 22 C 18.5 22, 22 18, 22 12.5 C 22 7, 18.5 3, 13 3 Z M 6.5 7.5 L 13 7.5 C 15.8 7.5, 17.5 9.5, 17.5 12.5 C 17.5 15.5, 15.8 17.5, 13 17.5 L 6.5 17.5 Z" fill="#4A5EC4"/>
  <path fill-rule="evenodd" clip-rule="evenodd" d="M 22 3 L 22 33 L 26.5 33 L 26.5 22 L 33 22 C 38.5 22, 42 18, 42 12.5 C 42 7, 38.5 3, 33 3 Z M 26.5 7.5 L 33 7.5 C 35.8 7.5, 37.5 9.5, 37.5 12.5 C 37.5 15.5, 35.8 17.5, 33 17.5 L 26.5 17.5 Z" fill="#E07A5F"/>
</svg>
